
<global>
</global>

<group>
amp_veltrack=0
ampeg_attack=0.02
ampeg_release=1.2
group_label=PP
lovel=0
trigger=first
xf_cccurve=gain
xfin_hicc1=42
xfout_hicc1=85
xfout_locc1=42

<region>
hikey=g6
hivel=127
lokey=f#6
lovel=0
offset=31535
pitch_keycenter=g6
sample=Violins1_espressivo_PP_G6.opus
</region>

<region>
hikey=g5
hivel=127
lokey=f#5
lovel=0
offset=37202
pitch_keycenter=g5
sample=Violins1_espressivo_PP_G5.opus
</region>

<region>
hikey=g4
hivel=127
lokey=f#4
lovel=0
offset=16299
pitch_keycenter=g4
sample=Violins1_espressivo_PP_G4.opus
</region>

<region>
hivel=127
key=g3
lovel=0
offset=15981
sample=Violins1_espressivo_PP_G3.opus
</region>

<region>
hikey=f6
hivel=127
lokey=e6
lovel=0
offset=27103
pitch_keycenter=f6
sample=Violins1_espressivo_PP_F6.opus
</region>

<region>
hikey=f5
hivel=127
lokey=e5
lovel=0
offset=26982
pitch_keycenter=f5
sample=Violins1_espressivo_PP_F5.opus
</region>

<region>
hikey=f4
hivel=127
lokey=e4
lovel=0
offset=21108
pitch_keycenter=f4
sample=Violins1_espressivo_PP_F4.opus
</region>

<region>
hikey=d#6
hivel=127
lokey=d6
lovel=0
offset=26899
pitch_keycenter=d#6
sample=Violins1_espressivo_PP_D#6.opus
</region>

<region>
hikey=d#5
hivel=127
lokey=d5
lovel=0
offset=25542
pitch_keycenter=d#5
sample=Violins1_espressivo_PP_D#5.opus
</region>

<region>
hikey=d#4
hivel=127
lokey=d4
lovel=0
offset=18827
pitch_keycenter=d#4
sample=Violins1_espressivo_PP_D#4.opus
</region>

<region>
hikey=c#6
hivel=127
lokey=c6
lovel=0
offset=32171
pitch_keycenter=c#6
sample=Violins1_espressivo_PP_C#6.opus
</region>

<region>
hikey=c#5
hivel=127
lokey=c5
lovel=0
offset=27259
pitch_keycenter=c#5
sample=Violins1_espressivo_PP_C#5.opus
</region>

<region>
hikey=c#4
hivel=127
lokey=c4
lovel=0
offset=16819
pitch_keycenter=c#4
sample=Violins1_espressivo_PP_C#4.opus
</region>

<region>
hikey=b5
hivel=127
lokey=a#5
lovel=0
offset=14233
pitch_keycenter=b5
sample=Violins1_espressivo_PP_B5.opus
</region>

<region>
hikey=b4
hivel=127
lokey=a#4
lovel=0
offset=13792
pitch_keycenter=b4
sample=Violins1_espressivo_PP_B4.opus
</region>

<region>
hikey=b3
hivel=127
lokey=a#3
lovel=0
offset=13828
pitch_keycenter=b3
sample=Violins1_espressivo_PP_B3.opus
</region>

<region>
hikey=E7
hivel=127
lokey=g#6
lovel=0
offset=27036
pitch_keycenter=A6
sample=Violins1_espressivo_PP_A6.opus
</region>

<region>
hikey=a5
hivel=127
lokey=g#5
lovel=0
offset=20084
pitch_keycenter=a5
sample=Violins1_espressivo_PP_A5.opus
</region>

<region>
hikey=a4
hivel=127
lokey=g#4
lovel=0
offset=12635
pitch_keycenter=a4
sample=Violins1_espressivo_PP_A4.opus
</region>

<region>
hikey=a3
hivel=127
lokey=g#3
lovel=0
offset=13215
pitch_keycenter=a3
sample=Violins1_espressivo_PP_A3.opus
</region>
</group>

<group>
amp_veltrack=0
ampeg_attack=0.02
ampeg_release=1.2
group_label=MF
lovel=0
trigger=first
xf_cccurve=gain
xfin_hicc1=85
xfin_locc1=42
xfout_hicc1=127
xfout_locc1=85

<region>
hikey=g6
hivel=127
lokey=f#6
lovel=0
offset=15256
pitch_keycenter=g6
sample=Violins1_espressivo_MF_G6.opus
</region>

<region>
hikey=g5
hivel=127
lokey=f#5
lovel=0
offset=22004
pitch_keycenter=g5
sample=Violins1_espressivo_MF_G5.opus
</region>

<region>
hikey=g4
hivel=127
lokey=f#4
lovel=0
offset=14736
pitch_keycenter=g4
sample=Violins1_espressivo_MF_G4.opus
</region>

<region>
hivel=127
key=g3
lovel=0
offset=23221
sample=Violins1_espressivo_MF_G3.opus
</region>

<region>
hikey=f6
hivel=127
lokey=e6
lovel=0
offset=17168
pitch_keycenter=f6
sample=Violins1_espressivo_MF_F6.opus
</region>

<region>
hikey=f5
hivel=127
lokey=e5
lovel=0
offset=12033
pitch_keycenter=f5
sample=Violins1_espressivo_MF_F5.opus
</region>

<region>
hikey=f4
hivel=127
lokey=e4
lovel=0
offset=13450
pitch_keycenter=f4
sample=Violins1_espressivo_MF_F4.opus
</region>

<region>
hikey=d#6
hivel=127
lokey=d6
lovel=0
offset=11752
pitch_keycenter=d#6
sample=Violins1_espressivo_MF_D#6.opus
</region>

<region>
hikey=d#5
hivel=127
lokey=d5
lovel=0
offset=18885
pitch_keycenter=d#5
sample=Violins1_espressivo_MF_D#5.opus
</region>

<region>
hikey=d#4
hivel=127
lokey=d4
lovel=0
offset=14690
pitch_keycenter=d#4
sample=Violins1_espressivo_MF_D#4.opus
</region>

<region>
hikey=c#6
hivel=127
lokey=c6
lovel=0
offset=13056
pitch_keycenter=c#6
sample=Violins1_espressivo_MF_C#6.opus
</region>

<region>
hikey=c#5
hivel=127
lokey=c5
lovel=0
offset=14361
pitch_keycenter=c#5
sample=Violins1_espressivo_MF_C#5.opus
</region>

<region>
hikey=c#4
hivel=127
lokey=c4
lovel=0
offset=6058
pitch_keycenter=c#4
sample=Violins1_espressivo_MF_C#4.opus
</region>

<region>
hikey=b5
hivel=127
lokey=a#5
lovel=0
offset=10670
pitch_keycenter=b5
sample=Violins1_espressivo_MF_B5.opus
</region>

<region>
hikey=b4
hivel=127
lokey=a#4
lovel=0
offset=15683
pitch_keycenter=b4
sample=Violins1_espressivo_MF_B4.opus
</region>

<region>
hikey=b3
hivel=127
lokey=a#3
lovel=0
offset=14222
pitch_keycenter=b3
sample=Violins1_espressivo_MF_B3.opus
</region>

<region>
hikey=E7
hivel=127
lokey=g#6
lovel=0
offset=19758
pitch_keycenter=A6
sample=Violins1_espressivo_MF_A6.opus
</region>

<region>
hikey=a5
hivel=127
lokey=g#5
lovel=0
offset=21306
pitch_keycenter=a5
sample=Violins1_espressivo_MF_A5.opus
</region>

<region>
hikey=a4
hivel=127
lokey=g#4
lovel=0
offset=16377
pitch_keycenter=a4
sample=Violins1_espressivo_MF_A4.opus
</region>

<region>
hikey=a3
hivel=127
lokey=g#3
lovel=0
offset=19025
pitch_keycenter=a3
sample=Violins1_espressivo_MF_A3.opus
</region>
</group>

<group>
amp_veltrack=0
ampeg_attack=0.02
ampeg_release=1.2
group_label=FF
lovel=0
trigger=first
xf_cccurve=gain
xfin_hicc1=127
xfin_locc1=85
xfout_hicc1=127
xfout_locc1=127

<region>
hikey=g6
hivel=127
lokey=f#6
lovel=0
offset=7231
pitch_keycenter=g6
sample=Violins1_espressivo_FF_G6.opus
</region>

<region>
hikey=g5
hivel=127
lokey=f#5
lovel=0
offset=13194
pitch_keycenter=g5
sample=Violins1_espressivo_FF_G5.opus
</region>

<region>
hikey=g4
hivel=127
lokey=f#4
lovel=0
offset=13763
pitch_keycenter=g4
sample=Violins1_espressivo_FF_G4.opus
</region>

<region>
hivel=127
key=g3
lovel=0
offset=9956
sample=Violins1_espressivo_FF_G3.opus
</region>

<region>
hikey=f6
hivel=127
lokey=e6
lovel=0
offset=6853
pitch_keycenter=f6
sample=Violins1_espressivo_FF_F6.opus
</region>

<region>
hikey=f5
hivel=127
lokey=e5
lovel=0
offset=9474
pitch_keycenter=f5
sample=Violins1_espressivo_FF_F5.opus
</region>

<region>
hikey=f4
hivel=127
lokey=e4
lovel=0
offset=8470
pitch_keycenter=f4
sample=Violins1_espressivo_FF_F4.opus
</region>

<region>
hikey=d#6
hivel=127
lokey=d6
lovel=0
offset=2432
pitch_keycenter=d#6
sample=Violins1_espressivo_FF_D#6.opus
</region>

<region>
hikey=d#5
hivel=127
lokey=d5
lovel=0
offset=8057
pitch_keycenter=d#5
sample=Violins1_espressivo_FF_D#5.opus
</region>

<region>
hikey=d#4
hivel=127
lokey=d4
lovel=0
offset=8532
pitch_keycenter=d#4
sample=Violins1_espressivo_FF_D#4.opus
</region>

<region>
hikey=c#6
hivel=127
lokey=c6
lovel=0
offset=6400
pitch_keycenter=c#6
sample=Violins1_espressivo_FF_C#6.opus
</region>

<region>
hikey=c#5
hivel=127
lokey=c5
lovel=0
offset=6830
pitch_keycenter=c#5
sample=Violins1_espressivo_FF_C#5.opus
</region>

<region>
hikey=c#4
hivel=127
lokey=c4
lovel=0
offset=6416
pitch_keycenter=c#4
sample=Violins1_espressivo_FF_C#4.opus
</region>

<region>
hikey=b5
hivel=127
lokey=a#5
lovel=0
offset=14875
pitch_keycenter=b5
sample=Violins1_espressivo_FF_B5.opus
</region>

<region>
hikey=b4
hivel=127
lokey=a#4
lovel=0
offset=7311
pitch_keycenter=b4
sample=Violins1_espressivo_FF_B4.opus
</region>

<region>
hikey=b3
hivel=127
lokey=a#3
lovel=0
offset=11298
pitch_keycenter=b3
sample=Violins1_espressivo_FF_B3.opus
</region>

<region>
hikey=E7
hivel=127
lokey=g#6
lovel=0
offset=10075
pitch_keycenter=A6
sample=Violins1_espressivo_FF_A6.opus
</region>

<region>
hikey=a5
hivel=127
lokey=g#5
lovel=0
offset=18184
pitch_keycenter=a5
sample=Violins1_espressivo_FF_A5.opus
</region>

<region>
hikey=a4
hivel=127
lokey=g#4
lovel=0
offset=5982
pitch_keycenter=a4
sample=Violins1_espressivo_FF_A4.opus
</region>

<region>
hikey=a3
hivel=127
lokey=g#3
lovel=0
offset=11432
pitch_keycenter=a3
sample=Violins1_espressivo_FF_A3.opus
</region>
</group>

<group>
amp_veltrack=80.0
ampeg_release=1.2
group_label=Blurred_Stacc
volume=-3.0

<region>
hikey=e8
hivel=127
lokey=d7
lovel=86
offset=646
pitch_keycenter=d7
sample=Violins1_fastsus_ff_D6.opus
volume=-6.0
</region>

<region>
hivel=127
key=e4
lovel=86
offset=336
sample=Violins1_fastsus_ff_E3.opus
volume=-6.0
</region>

<region>
hikey=d#4
hivel=127
lokey=d4
lovel=86
offset=874
pitch_keycenter=d4
sample=Violins1_fastsus_ff_D3.opus
volume=-6.0
</region>

<region>
hikey=d#5
hivel=127
lokey=d5
lovel=86
offset=882
pitch_keycenter=d5
sample=Violins1_fastsus_ff_D4.opus
volume=-6.0
</region>

<region>
hikey=c#7
hivel=127
lokey=c7
lovel=86
offset=924
pitch_keycenter=c7
sample=Violins1_fastsus_ff_C6.opus
volume=-6.0
</region>

<region>
hikey=c#4
hivel=127
lokey=c4
lovel=86
offset=621
pitch_keycenter=c4
sample=Violins1_fastsus_ff_C3.opus
volume=-6.0
</region>

<region>
hikey=c#5
hivel=127
lokey=c5
lovel=86
offset=374
pitch_keycenter=c5
sample=Violins1_fastsus_ff_C4.opus
volume=-6.0
</region>

<region>
hikey=c#6
hivel=127
lokey=c6
lovel=86
offset=660
pitch_keycenter=c6
sample=Violins1_fastsus_ff_C5.opus
volume=-6.0
</region>

<region>
hivel=127
key=b4
lovel=86
offset=299
sample=Violins1_fastsus_ff_B3.opus
volume=-6.0
</region>

<region>
hivel=127
key=b5
lovel=86
offset=420
sample=Violins1_fastsus_ff_B4.opus
volume=-6.0
</region>

<region>
hivel=127
key=b6
lovel=86
offset=819
sample=Violins1_fastsus_ff_B5.opus
volume=-6.0
</region>

<region>
hikey=a#5
hivel=127
lokey=a5
lovel=86
offset=594
pitch_keycenter=a5
sample=Violins1_fastsus_ff_A4.opus
volume=-6.0
</region>

<region>
hikey=a#6
hivel=127
lokey=a6
lovel=86
pitch_keycenter=a6
sample=Violins1_fastsus_ff_A5.opus
volume=-6.0
</region>

<region>
hivel=127
key=b3
lovel=86
offset=470
sample=Violins1_fastsus_ff_B2.opus
volume=-6.0
</region>

<region>
hikey=g#6
hivel=85
lokey=g6
lovel=43
offset=693
pitch_keycenter=g6
sample=Violins1_fastsus_mf_G5.opus
</region>

<region>
hikey=a#3
hivel=127
lokey=a3
lovel=86
offset=300
pitch_keycenter=a3
sample=Violins1_fastsus_ff_A2.opus
volume=-6.0
</region>

<region>
hikey=a#4
hivel=127
lokey=a4
lovel=86
offset=600
pitch_keycenter=a4
sample=Violins1_fastsus_ff_A3.opus
volume=-6.0
</region>

<region>
hikey=g#3
hivel=85
lokey=g3
lovel=43
offset=1500
pitch_keycenter=g3
sample=Violins1_fastsus_mf_G2.opus
</region>

<region>
hikey=g#4
hivel=85
lokey=g4
lovel=43
offset=1015
pitch_keycenter=g4
sample=Violins1_fastsus_mf_G3.opus
</region>

<region>
hikey=g#5
hivel=85
lokey=g5
lovel=43
offset=480
pitch_keycenter=g5
sample=Violins1_fastsus_mf_G4.opus
</region>

<region>
hikey=f#4
hivel=85
lokey=f4
lovel=43
offset=420
pitch_keycenter=f4
sample=Violins1_fastsus_mf_F3.opus
</region>

<region>
hikey=f#5
hivel=85
lokey=f5
lovel=43
offset=286
pitch_keycenter=f5
sample=Violins1_fastsus_mf_F4.opus
</region>

<region>
hikey=f#6
hivel=85
lokey=f6
lovel=43
offset=644
pitch_keycenter=f6
sample=Violins1_fastsus_mf_F5.opus
</region>

<region>
hivel=85
key=e4
lovel=43
offset=464
sample=Violins1_fastsus_mf_E3.opus
</region>

<region>
hivel=85
key=e5
lovel=43
offset=486
sample=Violins1_fastsus_mf_E4.opus
</region>

<region>
hivel=85
key=e6
lovel=43
offset=726
sample=Violins1_fastsus_mf_E5.opus
</region>

<region>
hikey=d#5
hivel=85
lokey=d5
lovel=43
offset=783
pitch_keycenter=d5
sample=Violins1_fastsus_mf_D4.opus
</region>

<region>
hikey=d#6
hivel=85
lokey=d6
lovel=43
offset=726
pitch_keycenter=d6
sample=Violins1_fastsus_mf_D5.opus
</region>

<region>
hikey=e8
hivel=85
lokey=d7
lovel=43
offset=160
pitch_keycenter=d7
sample=Violins1_fastsus_mf_D6.opus
</region>

<region>
hikey=c#7
hivel=85
lokey=c7
lovel=43
offset=437
pitch_keycenter=c7
sample=Violins1_fastsus_mf_C6.opus
</region>

<region>
hikey=d#4
hivel=85
lokey=d4
lovel=43
offset=1200
pitch_keycenter=d4
sample=Violins1_fastsus_mf_D3.opus
</region>

<region>
hikey=c#5
hivel=85
lokey=c5
lovel=43
offset=224
pitch_keycenter=c5
sample=Violins1_fastsus_mf_C4.opus
</region>

<region>
hikey=c#6
hivel=85
lokey=c6
lovel=43
offset=648
pitch_keycenter=c6
sample=Violins1_fastsus_mf_C5.opus
</region>

<region>
hivel=85
key=b6
lovel=43
offset=770
sample=Violins1_fastsus_mf_B5.opus
</region>

<region>
hikey=c#4
hivel=85
lokey=c4
lovel=43
offset=580
pitch_keycenter=c4
sample=Violins1_fastsus_mf_C3.opus
</region>

<region>
hivel=85
key=b3
lovel=43
offset=406
sample=Violins1_fastsus_mf_B2.opus
</region>

<region>
hivel=85
key=b4
lovel=43
offset=336
sample=Violins1_fastsus_mf_B3.opus
</region>

<region>
hivel=85
key=b5
lovel=43
offset=276
sample=Violins1_fastsus_mf_B4.opus
</region>

<region>
hikey=a#5
hivel=85
lokey=a5
lovel=43
offset=650
pitch_keycenter=a5
sample=Violins1_fastsus_mf_A4.opus
</region>

<region>
hikey=a#6
hivel=85
lokey=a6
lovel=43
offset=1012
pitch_keycenter=a6
sample=Violins1_fastsus_mf_A5.opus
</region>

<region>
hikey=g#6
hivel=42
lokey=g6
lovel=0
offset=1394
pitch_keycenter=g6
sample=Violins1_fastsus_pp_G5.opus
</region>

<region>
hikey=a#3
hivel=85
lokey=a3
lovel=43
offset=972
pitch_keycenter=a3
sample=Violins1_fastsus_mf_A2.opus
</region>

<region>
hikey=a#4
hivel=85
lokey=a4
lovel=43
offset=899
pitch_keycenter=a4
sample=Violins1_fastsus_mf_A3.opus
</region>

<region>
hikey=g#3
hivel=42
lokey=g3
lovel=0
offset=4992
pitch_keycenter=g3
sample=Violins1_fastsus_pp_G2.opus
</region>

<region>
hikey=g#4
hivel=42
lokey=g4
lovel=0
offset=483
pitch_keycenter=g4
sample=Violins1_fastsus_pp_G3.opus
</region>

<region>
hikey=g#5
hivel=42
lokey=g5
lovel=0
offset=1722
pitch_keycenter=g5
sample=Violins1_fastsus_pp_G4.opus
</region>

<region>
hikey=f#4
hivel=42
lokey=f4
lovel=0
offset=1848
pitch_keycenter=f4
sample=Violins1_fastsus_pp_F3.opus
</region>

<region>
hikey=f#5
hivel=42
lokey=f5
lovel=0
offset=1440
pitch_keycenter=f5
sample=Violins1_fastsus_pp_F4.opus
</region>

<region>
hikey=f#6
hivel=42
lokey=f6
lovel=0
offset=2204
pitch_keycenter=f6
sample=Violins1_fastsus_pp_F5.opus
</region>

<region>
hivel=42
key=e4
lovel=0
offset=1113
sample=Violins1_fastsus_pp_E3.opus
</region>

<region>
hivel=42
key=e5
lovel=0
offset=1840
sample=Violins1_fastsus_pp_E4.opus
</region>

<region>
hivel=42
key=e6
lovel=0
offset=2268
sample=Violins1_fastsus_pp_E5.opus
</region>

<region>
hikey=d#5
hivel=42
lokey=d5
lovel=0
offset=2121
pitch_keycenter=d5
sample=Violins1_fastsus_pp_D4.opus
</region>

<region>
hikey=d#6
hivel=42
lokey=d6
lovel=0
offset=2200
pitch_keycenter=d6
sample=Violins1_fastsus_pp_D5.opus
</region>

<region>
hikey=e8
hivel=42
lokey=d7
lovel=0
offset=874
pitch_keycenter=d7
sample=Violins1_fastsus_pp_D6.opus
</region>

<region>
hikey=c#7
hivel=42
lokey=c7
lovel=0
offset=880
pitch_keycenter=c7
sample=Violins1_fastsus_pp_C6.opus
</region>

<region>
hikey=d#4
hivel=42
lokey=d4
lovel=0
offset=1640
pitch_keycenter=d4
sample=Violins1_fastsus_pp_D3.opus
</region>

<region>
hikey=c#4
hivel=42
lokey=c4
lovel=0
offset=1640
pitch_keycenter=c4
sample=Violins1_fastsus_pp_C3.opus
</region>

<region>
hikey=c#5
hivel=42
lokey=c5
lovel=0
offset=1254
pitch_keycenter=c5
sample=Violins1_fastsus_pp_C4.opus
</region>

<region>
hikey=c#6
hivel=42
lokey=c6
lovel=0
offset=1932
pitch_keycenter=c6
sample=Violins1_fastsus_pp_C5.opus
</region>

<region>
hivel=42
key=b4
lovel=0
offset=1558
sample=Violins1_fastsus_pp_B3.opus
</region>

<region>
hivel=42
key=b5
lovel=0
offset=1596
sample=Violins1_fastsus_pp_B4.opus
</region>

<region>
hivel=42
key=b6
lovel=0
offset=1240
sample=Violins1_fastsus_pp_B5.opus
</region>

<region>
hikey=a#6
hivel=42
lokey=a6
lovel=0
offset=2214
pitch_keycenter=a6
sample=Violins1_fastsus_pp_A5.opus
</region>

<region>
hivel=42
key=b3
lovel=0
offset=1000
sample=Violins1_fastsus_pp_B2.opus
</region>

<region>
hikey=a#3
hivel=42
lokey=a3
lovel=0
offset=1426
pitch_keycenter=a3
sample=Violins1_fastsus_pp_A2.opus
</region>

<region>
hikey=a#4
hivel=42
lokey=a4
lovel=0
offset=1920
pitch_keycenter=a4
sample=Violins1_fastsus_pp_A3.opus
</region>

<region>
hikey=a#5
hivel=42
lokey=a5
lovel=0
offset=1820
pitch_keycenter=a5
sample=Violins1_fastsus_pp_A4.opus
</region>

<region>
hikey=g#4
hivel=127
lokey=g4
lovel=86
offset=945
pitch_keycenter=g4
sample=Violins1_fastsus_ff_G3.opus
volume=-6.0
</region>

<region>
hikey=g#5
hivel=127
lokey=g5
lovel=86
offset=420
pitch_keycenter=g5
sample=Violins1_fastsus_ff_G4.opus
volume=-6.0
</region>

<region>
hikey=g#6
hivel=127
lokey=g6
lovel=86
offset=340
pitch_keycenter=g6
sample=Violins1_fastsus_ff_G5.opus
volume=-6.0
</region>

<region>
hikey=f#5
hivel=127
lokey=f5
lovel=86
offset=300
pitch_keycenter=f5
sample=Violins1_fastsus_ff_F4.opus
volume=-6.0
</region>

<region>
hikey=f#6
hivel=127
lokey=f6
lovel=86
offset=484
pitch_keycenter=f6
sample=Violins1_fastsus_ff_F5.opus
volume=-6.0
</region>

<region>
hikey=g#3
hivel=127
lokey=g3
lovel=86
offset=915
pitch_keycenter=g3
sample=Violins1_fastsus_ff_G2.opus
volume=-6.0
</region>

<region>
hivel=127
key=e5
lovel=86
offset=630
sample=Violins1_fastsus_ff_E4.opus
volume=-6.0
</region>

<region>
hivel=127
key=e6
lovel=86
offset=231
sample=Violins1_fastsus_ff_E5.opus
volume=-6.0
</region>

<region>
hikey=f#4
hivel=127
lokey=f4
lovel=86
offset=220
pitch_keycenter=f4
sample=Violins1_fastsus_ff_F3.opus
volume=-6.0
</region>

<region>
hikey=d#6
hivel=127
lokey=d6
lovel=86
offset=396
pitch_keycenter=d6
sample=Violins1_fastsus_ff_D5.opus
volume=-6.0
</region>
</group>

<group>
amp_veltrack=0
ampeg_attack=0.01
ampeg_release=1.2
group_label=PP_copy
lovel=0
trigger=legato
xf_cccurve=gain
xfin_hicc1=42
xfout_hicc1=85
xfout_locc1=42

<region>
hikey=g6
hivel=127
lokey=f#6
lovel=0
offset=24000
pitch_keycenter=g6
sample=Violins1_espressivo_PP_G6.opus
</region>

<region>
hikey=g5
hivel=127
lokey=f#5
lovel=0
offset=24000
pitch_keycenter=g5
sample=Violins1_espressivo_PP_G5.opus
</region>

<region>
hikey=g4
hivel=127
lokey=f#4
lovel=0
offset=24000
pitch_keycenter=g4
sample=Violins1_espressivo_PP_G4.opus
</region>

<region>
hivel=127
key=g3
lovel=0
offset=24000
sample=Violins1_espressivo_PP_G3.opus
</region>

<region>
hikey=f6
hivel=127
lokey=e6
lovel=0
offset=24000
pitch_keycenter=f6
sample=Violins1_espressivo_PP_F6.opus
</region>

<region>
hikey=f5
hivel=127
lokey=e5
lovel=0
offset=24000
pitch_keycenter=f5
sample=Violins1_espressivo_PP_F5.opus
</region>

<region>
hikey=f4
hivel=127
lokey=e4
lovel=0
offset=24000
pitch_keycenter=f4
sample=Violins1_espressivo_PP_F4.opus
</region>

<region>
hikey=d#6
hivel=127
lokey=d6
lovel=0
offset=24000
pitch_keycenter=d#6
sample=Violins1_espressivo_PP_D#6.opus
</region>

<region>
hikey=d#5
hivel=127
lokey=d5
lovel=0
offset=24000
pitch_keycenter=d#5
sample=Violins1_espressivo_PP_D#5.opus
</region>

<region>
hikey=d#4
hivel=127
lokey=d4
lovel=0
offset=24000
pitch_keycenter=d#4
sample=Violins1_espressivo_PP_D#4.opus
</region>

<region>
hikey=c#6
hivel=127
lokey=c6
lovel=0
offset=24000
pitch_keycenter=c#6
sample=Violins1_espressivo_PP_C#6.opus
</region>

<region>
hikey=c#5
hivel=127
lokey=c5
lovel=0
offset=24000
pitch_keycenter=c#5
sample=Violins1_espressivo_PP_C#5.opus
</region>

<region>
hikey=c#4
hivel=127
lokey=c4
lovel=0
offset=24000
pitch_keycenter=c#4
sample=Violins1_espressivo_PP_C#4.opus
</region>

<region>
hikey=b5
hivel=127
lokey=a#5
lovel=0
offset=24000
pitch_keycenter=b5
sample=Violins1_espressivo_PP_B5.opus
</region>

<region>
hikey=b4
hivel=127
lokey=a#4
lovel=0
offset=24000
pitch_keycenter=b4
sample=Violins1_espressivo_PP_B4.opus
</region>

<region>
hikey=b3
hivel=127
lokey=a#3
lovel=0
offset=24000
pitch_keycenter=b3
sample=Violins1_espressivo_PP_B3.opus
</region>

<region>
hikey=E7
hivel=127
lokey=g#6
lovel=0
offset=24000
pitch_keycenter=A6
sample=Violins1_espressivo_PP_A6.opus
</region>

<region>
hikey=a5
hivel=127
lokey=g#5
lovel=0
offset=24000
pitch_keycenter=a5
sample=Violins1_espressivo_PP_A5.opus
</region>

<region>
hikey=a4
hivel=127
lokey=g#4
lovel=0
offset=24000
pitch_keycenter=a4
sample=Violins1_espressivo_PP_A4.opus
</region>

<region>
hikey=a3
hivel=127
lokey=g#3
lovel=0
offset=24000
pitch_keycenter=a3
sample=Violins1_espressivo_PP_A3.opus
</region>
</group>

<group>
amp_veltrack=0
ampeg_attack=0.01
ampeg_release=1.2
group_label=MF_copy
lovel=0
trigger=legato
xf_cccurve=gain
xfin_hicc1=85
xfin_locc1=42
xfout_hicc1=127
xfout_locc1=85

<region>
hikey=g6
hivel=127
lokey=f#6
lovel=0
offset=24000
pitch_keycenter=g6
sample=Violins1_espressivo_MF_G6.opus
</region>

<region>
hikey=g5
hivel=127
lokey=f#5
lovel=0
offset=24000
pitch_keycenter=g5
sample=Violins1_espressivo_MF_G5.opus
</region>

<region>
hikey=g4
hivel=127
lokey=f#4
lovel=0
offset=24000
pitch_keycenter=g4
sample=Violins1_espressivo_MF_G4.opus
</region>

<region>
hivel=127
key=g3
lovel=0
offset=24000
sample=Violins1_espressivo_MF_G3.opus
</region>

<region>
hikey=f6
hivel=127
lokey=e6
lovel=0
offset=24000
pitch_keycenter=f6
sample=Violins1_espressivo_MF_F6.opus
</region>

<region>
hikey=f5
hivel=127
lokey=e5
lovel=0
offset=24000
pitch_keycenter=f5
sample=Violins1_espressivo_MF_F5.opus
</region>

<region>
hikey=f4
hivel=127
lokey=e4
lovel=0
offset=24000
pitch_keycenter=f4
sample=Violins1_espressivo_MF_F4.opus
</region>

<region>
hikey=d#6
hivel=127
lokey=d6
lovel=0
offset=24000
pitch_keycenter=d#6
sample=Violins1_espressivo_MF_D#6.opus
</region>

<region>
hikey=d#5
hivel=127
lokey=d5
lovel=0
offset=24000
pitch_keycenter=d#5
sample=Violins1_espressivo_MF_D#5.opus
</region>

<region>
hikey=d#4
hivel=127
lokey=d4
lovel=0
offset=24000
pitch_keycenter=d#4
sample=Violins1_espressivo_MF_D#4.opus
</region>

<region>
hikey=c#6
hivel=127
lokey=c6
lovel=0
offset=24000
pitch_keycenter=c#6
sample=Violins1_espressivo_MF_C#6.opus
</region>

<region>
hikey=c#5
hivel=127
lokey=c5
lovel=0
offset=24000
pitch_keycenter=c#5
sample=Violins1_espressivo_MF_C#5.opus
</region>

<region>
hikey=c#4
hivel=127
lokey=c4
lovel=0
offset=24000
pitch_keycenter=c#4
sample=Violins1_espressivo_MF_C#4.opus
</region>

<region>
hikey=b5
hivel=127
lokey=a#5
lovel=0
offset=24000
pitch_keycenter=b5
sample=Violins1_espressivo_MF_B5.opus
</region>

<region>
hikey=b4
hivel=127
lokey=a#4
lovel=0
offset=24000
pitch_keycenter=b4
sample=Violins1_espressivo_MF_B4.opus
</region>

<region>
hikey=b3
hivel=127
lokey=a#3
lovel=0
offset=24000
pitch_keycenter=b3
sample=Violins1_espressivo_MF_B3.opus
</region>

<region>
hikey=E7
hivel=127
lokey=g#6
lovel=0
offset=24000
pitch_keycenter=A6
sample=Violins1_espressivo_MF_A6.opus
</region>

<region>
hikey=a5
hivel=127
lokey=g#5
lovel=0
offset=24000
pitch_keycenter=a5
sample=Violins1_espressivo_MF_A5.opus
</region>

<region>
hikey=a4
hivel=127
lokey=g#4
lovel=0
offset=24000
pitch_keycenter=a4
sample=Violins1_espressivo_MF_A4.opus
</region>

<region>
hikey=a3
hivel=127
lokey=g#3
lovel=0
offset=24000
pitch_keycenter=a3
sample=Violins1_espressivo_MF_A3.opus
</region>
</group>

<group>
amp_veltrack=0
ampeg_attack=0.01
ampeg_release=1.2
group_label=FF_copy
lovel=0
trigger=legato
xf_cccurve=gain
xfin_hicc1=127
xfin_locc1=85
xfout_hicc1=127
xfout_locc1=127

<region>
hikey=g6
hivel=127
lokey=f#6
lovel=0
offset=24000
pitch_keycenter=g6
sample=Violins1_espressivo_FF_G6.opus
</region>

<region>
hikey=g5
hivel=127
lokey=f#5
lovel=0
offset=24000
pitch_keycenter=g5
sample=Violins1_espressivo_FF_G5.opus
</region>

<region>
hikey=g4
hivel=127
lokey=f#4
lovel=0
offset=24000
pitch_keycenter=g4
sample=Violins1_espressivo_FF_G4.opus
</region>

<region>
hivel=127
key=g3
lovel=0
offset=24000
sample=Violins1_espressivo_FF_G3.opus
</region>

<region>
hikey=f6
hivel=127
lokey=e6
lovel=0
offset=24000
pitch_keycenter=f6
sample=Violins1_espressivo_FF_F6.opus
</region>

<region>
hikey=f5
hivel=127
lokey=e5
lovel=0
offset=24000
pitch_keycenter=f5
sample=Violins1_espressivo_FF_F5.opus
</region>

<region>
hikey=f4
hivel=127
lokey=e4
lovel=0
offset=24000
pitch_keycenter=f4
sample=Violins1_espressivo_FF_F4.opus
</region>

<region>
hikey=d#6
hivel=127
lokey=d6
lovel=0
offset=24000
pitch_keycenter=d#6
sample=Violins1_espressivo_FF_D#6.opus
</region>

<region>
hikey=d#5
hivel=127
lokey=d5
lovel=0
offset=24000
pitch_keycenter=d#5
sample=Violins1_espressivo_FF_D#5.opus
</region>

<region>
hikey=d#4
hivel=127
lokey=d4
lovel=0
offset=24000
pitch_keycenter=d#4
sample=Violins1_espressivo_FF_D#4.opus
</region>

<region>
hikey=c#6
hivel=127
lokey=c6
lovel=0
offset=24000
pitch_keycenter=c#6
sample=Violins1_espressivo_FF_C#6.opus
</region>

<region>
hikey=c#5
hivel=127
lokey=c5
lovel=0
offset=24000
pitch_keycenter=c#5
sample=Violins1_espressivo_FF_C#5.opus
</region>

<region>
hikey=c#4
hivel=127
lokey=c4
lovel=0
offset=24000
pitch_keycenter=c#4
sample=Violins1_espressivo_FF_C#4.opus
</region>

<region>
hikey=b5
hivel=127
lokey=a#5
lovel=0
offset=24000
pitch_keycenter=b5
sample=Violins1_espressivo_FF_B5.opus
</region>

<region>
hikey=b4
hivel=127
lokey=a#4
lovel=0
offset=24000
pitch_keycenter=b4
sample=Violins1_espressivo_FF_B4.opus
</region>

<region>
hikey=b3
hivel=127
lokey=a#3
lovel=0
offset=24000
pitch_keycenter=b3
sample=Violins1_espressivo_FF_B3.opus
</region>

<region>
hikey=E7
hivel=127
lokey=g#6
lovel=0
offset=24000
pitch_keycenter=A6
sample=Violins1_espressivo_FF_A6.opus
</region>

<region>
hikey=a5
hivel=127
lokey=g#5
lovel=0
offset=24000
pitch_keycenter=a5
sample=Violins1_espressivo_FF_A5.opus
</region>

<region>
hikey=a4
hivel=127
lokey=g#4
lovel=0
offset=24000
pitch_keycenter=a4
sample=Violins1_espressivo_FF_A4.opus
</region>

<region>
hikey=a3
hivel=127
lokey=g#3
lovel=0
offset=24000
pitch_keycenter=a3
sample=Violins1_espressivo_FF_A3.opus
</region>
</group>

<group>
amp_veltrack=0.0
ampeg_attack=0.01
ampeg_release=1.2
group_label=PP-trill_copy
lovel=0
trigger=legato
volume=-6.0
xf_cccurve=gain
xfin_hicc1=42
xfout_hicc1=85
xfout_locc1=42

<region>
hikey=f6
hivel=127
lokey=e6
lovel=0
offset=27339
pitch_keycenter=f6
sample=Violins1_trill_half_PP_G6.opus
</region>

<region>
hikey=f5
hivel=127
lokey=e5
lovel=0
offset=19560
pitch_keycenter=f5
sample=Violins1_trill_half_PP_G5.opus
</region>

<region>
hikey=f4
hivel=127
lokey=e4
lovel=0
offset=31927
pitch_keycenter=f4
sample=Violins1_trill_half_PP_G4.opus
</region>

<region>
hikey=d#6
hivel=127
lokey=d6
lovel=0
offset=35513
pitch_keycenter=d#6
sample=Violins1_trill_half_PP_F6.opus
</region>

<region>
hikey=d#5
hivel=127
lokey=d5
lovel=0
offset=16906
pitch_keycenter=d#5
sample=Violins1_trill_half_PP_F5.opus
</region>

<region>
hikey=d#4
hivel=127
lokey=d4
lovel=0
offset=28468
pitch_keycenter=d#4
sample=Violins1_trill_half_PP_F4.opus
</region>

<region>
hikey=c#6
hivel=127
lokey=c6
lovel=0
offset=27175
pitch_keycenter=c#6
sample=Violins1_trill_half_PP_D#6.opus
</region>

<region>
hikey=c#5
hivel=127
lokey=c5
lovel=0
offset=16345
pitch_keycenter=c#5
sample=Violins1_trill_half_PP_D#5.opus
</region>

<region>
hikey=c#4
hivel=127
lokey=c4
lovel=0
offset=8136
pitch_keycenter=c#4
sample=Violins1_trill_half_PP_D#4.opus
</region>

<region>
hikey=E7
hivel=127
lokey=a#6
lovel=0
offset=24390
pitch_keycenter=a#6
sample=Violins1_trill_half_PP_C7.opus
</region>

<region>
hikey=b5
hivel=127
lokey=a#5
lovel=0
offset=19947
pitch_keycenter=b5
sample=Violins1_trill_half_PP_C#6.opus
</region>

<region>
hikey=b4
hivel=127
lokey=a#4
lovel=0
offset=17998
pitch_keycenter=b4
sample=Violins1_trill_half_PP_C#5.opus
</region>

<region>
hikey=b3
hivel=127
lokey=a#3
lovel=0
offset=16363
pitch_keycenter=b3
sample=Violins1_trill_half_PP_C#4.opus
</region>

<region>
hikey=a6
hivel=127
lokey=g#6
lovel=0
offset=25064
pitch_keycenter=a6
sample=Violins1_trill_half_PP_B6.opus
</region>

<region>
hikey=a5
hivel=127
lokey=g#5
lovel=0
offset=17744
pitch_keycenter=a5
sample=Violins1_trill_half_PP_B5.opus
</region>

<region>
hikey=a4
hivel=127
lokey=g#4
lovel=0
offset=15257
pitch_keycenter=a4
sample=Violins1_trill_half_PP_B4.opus
</region>

<region>
hikey=a3
hivel=127
lokey=g#3
lovel=0
offset=22795
pitch_keycenter=a3
sample=Violins1_trill_half_PP_B3.opus
</region>

<region>
hikey=g6
hivel=127
lokey=f#6
lovel=0
offset=27918
pitch_keycenter=g6
sample=Violins1_trill_half_PP_A6.opus
</region>

<region>
hikey=g5
hivel=127
lokey=f#5
lovel=0
offset=21803
pitch_keycenter=g5
sample=Violins1_trill_half_PP_A5.opus
</region>

<region>
hikey=g4
hivel=127
lokey=f#4
lovel=0
offset=21358
pitch_keycenter=g4
sample=Violins1_trill_half_PP_A4.opus
</region>

<region>
hivel=127
key=g3
lovel=0
offset=24438
sample=Violins1_trill_half_PP_A3.opus
</region>
</group>

<group>
amp_veltrack=0.0
ampeg_attack=0.01
ampeg_release=1.2
group_label=MF-trill_copy
lovel=0
trigger=legato
volume=-6.0
xf_cccurve=gain
xfin_hicc1=85
xfin_locc1=42
xfout_hicc1=127
xfout_locc1=85

<region>
hikey=f6
hivel=127
lokey=e6
lovel=0
pitch_keycenter=f6
sample=Violins1_trill_half_MF_G6.opus
</region>

<region>
hikey=f5
hivel=127
lokey=e5
lovel=0
pitch_keycenter=f5
sample=Violins1_trill_half_MF_G5.opus
</region>

<region>
hikey=f4
hivel=127
lokey=e4
lovel=0
pitch_keycenter=f4
sample=Violins1_trill_half_MF_G4.opus
</region>

<region>
hikey=d#6
hivel=127
lokey=d6
lovel=0
pitch_keycenter=d#6
sample=Violins1_trill_half_MF_F6.opus
</region>

<region>
hikey=d#5
hivel=127
lokey=d5
lovel=0
pitch_keycenter=d#5
sample=Violins1_trill_half_MF_F5.opus
</region>

<region>
hikey=d#4
hivel=127
lokey=d4
lovel=0
pitch_keycenter=d#4
sample=Violins1_trill_half_MF_F4.opus
</region>

<region>
hikey=c#6
hivel=127
lokey=c6
lovel=0
pitch_keycenter=c#6
sample=Violins1_trill_half_MF_D#6.opus
</region>

<region>
hikey=c#5
hivel=127
lokey=c5
lovel=0
pitch_keycenter=c#5
sample=Violins1_trill_half_MF_D#5.opus
</region>

<region>
hikey=c#4
hivel=127
lokey=c4
lovel=0
pitch_keycenter=c#4
sample=Violins1_trill_half_MF_D#4.opus
</region>

<region>
hikey=E7
hivel=127
lokey=a#6
lovel=0
pitch_keycenter=a#6
sample=Violins1_trill_half_MF_C7.opus
</region>

<region>
hikey=b5
hivel=127
lokey=a#5
lovel=0
pitch_keycenter=b5
sample=Violins1_trill_half_MF_C#6.opus
</region>

<region>
hikey=b4
hivel=127
lokey=a#4
lovel=0
pitch_keycenter=b4
sample=Violins1_trill_half_MF_C#5.opus
</region>

<region>
hikey=b3
hivel=127
lokey=a#3
lovel=0
pitch_keycenter=b3
sample=Violins1_trill_half_MF_C#4.opus
</region>

<region>
hikey=a6
hivel=127
lokey=g#6
lovel=0
pitch_keycenter=a6
sample=Violins1_trill_half_MF_B6.opus
</region>

<region>
hikey=a5
hivel=127
lokey=g#5
lovel=0
pitch_keycenter=a5
sample=Violins1_trill_half_MF_B5.opus
</region>

<region>
hikey=a4
hivel=127
lokey=g#4
lovel=0
pitch_keycenter=a4
sample=Violins1_trill_half_MF_B4.opus
</region>

<region>
hikey=a3
hivel=127
lokey=g#3
lovel=0
pitch_keycenter=a3
sample=Violins1_trill_half_MF_B3.opus
</region>

<region>
hikey=g6
hivel=127
lokey=f#6
lovel=0
pitch_keycenter=g6
sample=Violins1_trill_half_MF_A6.opus
</region>

<region>
hikey=g5
hivel=127
lokey=f#5
lovel=0
pitch_keycenter=g5
sample=Violins1_trill_half_MF_A5.opus
</region>

<region>
hikey=g4
hivel=127
lokey=f#4
lovel=0
pitch_keycenter=g4
sample=Violins1_trill_half_MF_A4.opus
</region>

<region>
hivel=127
key=g3
lovel=0
sample=Violins1_trill_half_MF_A3.opus
</region>
</group>

<group>
amp_veltrack=0.0
ampeg_attack=0.01
ampeg_release=1.2
group_label=FF-trill_copy
lovel=0
trigger=legato
volume=-6.0
xf_cccurve=gain
xfin_hicc1=127
xfin_locc1=85
xfout_hicc1=127
xfout_locc1=127

<region>
hikey=f6
hivel=127
lokey=e6
lovel=0
pitch_keycenter=f6
sample=Violins1_trill_half_FF_G6.opus
</region>

<region>
hikey=f5
hivel=127
lokey=e5
lovel=0
pitch_keycenter=f5
sample=Violins1_trill_half_FF_G5.opus
</region>

<region>
hikey=f4
hivel=127
lokey=e4
lovel=0
pitch_keycenter=f4
sample=Violins1_trill_half_FF_G4.opus
</region>

<region>
hikey=d#6
hivel=127
lokey=d6
lovel=0
pitch_keycenter=d#6
sample=Violins1_trill_half_FF_F6.opus
</region>

<region>
hikey=d#5
hivel=127
lokey=d5
lovel=0
pitch_keycenter=d#5
sample=Violins1_trill_half_FF_F5.opus
</region>

<region>
hikey=d#4
hivel=127
lokey=d4
lovel=0
pitch_keycenter=d#4
sample=Violins1_trill_half_FF_F4.opus
</region>

<region>
hikey=c#6
hivel=127
lokey=c6
lovel=0
pitch_keycenter=c#6
sample=Violins1_trill_half_FF_D#6.opus
</region>

<region>
hikey=c#5
hivel=127
lokey=c5
lovel=0
pitch_keycenter=c#5
sample=Violins1_trill_half_FF_D#5.opus
</region>

<region>
hikey=c#4
hivel=127
lokey=c4
lovel=0
pitch_keycenter=c#4
sample=Violins1_trill_half_FF_D#4.opus
</region>

<region>
hikey=E7
hivel=127
lokey=a#6
lovel=0
pitch_keycenter=a#6
sample=Violins1_trill_half_FF_C7.opus
</region>

<region>
hikey=b5
hivel=127
lokey=a#5
lovel=0
pitch_keycenter=b5
sample=Violins1_trill_half_FF_C#6.opus
</region>

<region>
hikey=b4
hivel=127
lokey=a#4
lovel=0
pitch_keycenter=b4
sample=Violins1_trill_half_FF_C#5.opus
</region>

<region>
hikey=b3
hivel=127
lokey=a#3
lovel=0
pitch_keycenter=b3
sample=Violins1_trill_half_FF_C#4.opus
</region>

<region>
hikey=a6
hivel=127
lokey=g#6
lovel=0
pitch_keycenter=a6
sample=Violins1_trill_half_FF_B6.opus
</region>

<region>
hikey=a5
hivel=127
lokey=g#5
lovel=0
pitch_keycenter=a5
sample=Violins1_trill_half_FF_B5.opus
</region>

<region>
hikey=a4
hivel=127
lokey=g#4
lovel=0
pitch_keycenter=a4
sample=Violins1_trill_half_FF_B4.opus
</region>

<region>
hikey=a3
hivel=127
lokey=g#3
lovel=0
pitch_keycenter=a3
sample=Violins1_trill_half_FF_B3.opus
</region>

<region>
hikey=g6
hivel=127
lokey=f#6
lovel=0
pitch_keycenter=g6
sample=Violins1_trill_half_FF_A6.opus
</region>

<region>
hikey=g5
hivel=127
lokey=f#5
lovel=0
pitch_keycenter=g5
sample=Violins1_trill_half_FF_A5.opus
</region>

<region>
hikey=g4
hivel=127
lokey=f#4
lovel=0
pitch_keycenter=g4
sample=Violins1_trill_half_FF_A4.opus
</region>

<region>
hivel=127
key=g3
lovel=0
sample=Violins1_trill_half_FF_A3.opus
</region>
</group>